<svg xmlns="http://www.w3.org/2000/svg" width="100%" height="100%" viewBox="0 0 74.991 75">
  <path id="Icon_awesome-check-double" data-name="Icon awesome-check-double" d="M73.968,25.6l-5.8-5.8a3.5,3.5,0,0,0-4.965,0L28.125,54.882,11.809,38.551a3.5,3.5,0,0,0-4.965,0L1.029,44.366a3.518,3.518,0,0,0,0,4.98l24.606,24.62a3.5,3.5,0,0,0,4.965,0L73.953,30.583A3.532,3.532,0,0,0,73.968,25.6ZM26.47,41.129a2.325,2.325,0,0,0,3.31,0L60.244,10.635a2.351,2.351,0,0,0,0-3.31L53.624.69a2.325,2.325,0,0,0-3.31,0L28.125,22.879l-8.114-8.129a2.325,2.325,0,0,0-3.31,0l-6.635,6.635a2.351,2.351,0,0,0,0,3.31Z" transform="translate(0.004 0.002)" fill="#cb0808"/>
</svg>
