<svg xmlns="http://www.w3.org/2000/svg" width="100%" height="100%" viewBox="0 0 113.1 71.551">
  <path id="Icon_metro-dollars" data-name="Icon metro-dollars" d="M109.724,66.365l.17-50.862-92.415.057,0-5.834h98.195V66.368l-5.947,0Zm-3,8.95-5.944-.006.17-50.862-92.415.06,0-5.834H106.73V75.315Zm-8.756,5.962H2.571V27.614h95.4V81.277ZM92.006,33.391H8.532V75.315H92V33.391ZM83.065,70.845a4.362,4.362,0,0,0,.3,1.488h-33.1c8.232,0,14.908-8.006,14.908-17.888S58.5,36.557,50.269,36.557H83.363a4.364,4.364,0,0,0-.3,1.491,4.469,4.469,0,0,0,4.47,4.47,4.364,4.364,0,0,0,1.491-.3v24.45a4.365,4.365,0,0,0-5.959,4.176ZM77.1,48.236c-2.47,0-4.47,2.667-4.47,5.962s2,5.962,4.47,5.962,4.47-2.667,4.47-5.962S79.571,48.236,77.1,48.236ZM56.511,43.7a1.387,1.387,0,0,1,.11.345,3.056,3.056,0,0,1,.063.542c.015.217.021.488.021.813,0,.36-.009.667-.027.914a4.148,4.148,0,0,1-.092.616.771.771,0,0,1-.185.354.465.465,0,0,1-.327.113,1.573,1.573,0,0,1-.652-.259c-.3-.176-.667-.36-1.1-.563a10.508,10.508,0,0,0-1.509-.557,6.689,6.689,0,0,0-1.881-.25,4.455,4.455,0,0,0-1.4.193,2.874,2.874,0,0,0-1,.539,2.111,2.111,0,0,0-.6.824,2.687,2.687,0,0,0-.2,1.021,2.263,2.263,0,0,0,.438,1.39,4.165,4.165,0,0,0,1.176,1.042,12.6,12.6,0,0,0,1.667.857q.929.4,1.9.845a18.909,18.909,0,0,1,1.9,1.018,7.547,7.547,0,0,1,1.658,1.357,6.34,6.34,0,0,1,1.176,1.863,6.527,6.527,0,0,1,.446,2.524,7.445,7.445,0,0,1-.708,3.33,6.886,6.886,0,0,1-1.92,2.4,8.34,8.34,0,0,1-2.83,1.441c-.137.042-.286.06-.426.092v3.256H49.293V66.883c-.039,0-.071.009-.11.009a12.594,12.594,0,0,1-2.319-.2,13.864,13.864,0,0,1-1.89-.488,8.3,8.3,0,0,1-1.369-.6,3.8,3.8,0,0,1-.792-.554,1.4,1.4,0,0,1-.345-.7,6.368,6.368,0,0,1-.1-1.316c0-.384.012-.708.039-.967a2.748,2.748,0,0,1,.122-.637.711.711,0,0,1,.223-.345.553.553,0,0,1,.324-.1,1.526,1.526,0,0,1,.738.31,13.09,13.09,0,0,0,1.22.679,11.186,11.186,0,0,0,1.78.679,8.4,8.4,0,0,0,2.393.31,5.516,5.516,0,0,0,1.6-.214,3.621,3.621,0,0,0,1.2-.6,2.619,2.619,0,0,0,.753-.97,3.079,3.079,0,0,0,.262-1.289,2.273,2.273,0,0,0-.446-1.408,4.423,4.423,0,0,0-1.164-1.045,12.021,12.021,0,0,0-1.628-.854c-.61-.268-1.235-.551-1.881-.848a17.11,17.11,0,0,1-1.881-1.015,7.522,7.522,0,0,1-1.628-1.36,6.45,6.45,0,0,1-1.164-1.869,7.614,7.614,0,0,1,.2-5.631,6.252,6.252,0,0,1,1.732-2.179,7.432,7.432,0,0,1,2.569-1.295,10.771,10.771,0,0,1,1.569-.324v-3.08h2.932v3.08c.116.015.232.009.348.027a11.685,11.685,0,0,1,1.6.351,8.806,8.806,0,0,1,1.319.5,3.121,3.121,0,0,1,.768.461,1.179,1.179,0,0,1,.244.3ZM35.364,54.445c0,9.878,6.673,17.888,14.905,17.888H17.176a4.367,4.367,0,0,0-5.661-5.661V42.221a4.364,4.364,0,0,0,1.491.3,4.367,4.367,0,0,0,4.17-5.962H50.269c-8.232,0-14.905,8.006-14.905,17.885ZM23.438,48.236c-2.47,0-4.47,2.667-4.47,5.962s2,5.962,4.47,5.962,4.47-2.667,4.47-5.962S25.908,48.236,23.438,48.236Z" transform="translate(-2.571 -9.726)" fill="#cb0808"/>
</svg>
