<svg xmlns="http://www.w3.org/2000/svg" width="100%" height="100%" viewBox="0 0 102.857 72">
  <path id="Icon_awesome-users" data-name="Icon awesome-users" d="M15.429,33.107A10.286,10.286,0,1,0,5.143,22.821,10.3,10.3,0,0,0,15.429,33.107Zm72,0A10.286,10.286,0,1,0,77.143,22.821,10.3,10.3,0,0,0,87.429,33.107Zm5.143,5.143H82.286a10.256,10.256,0,0,0-7.248,2.989,23.508,23.508,0,0,1,12.07,17.582H97.714a5.137,5.137,0,0,0,5.143-5.143V48.536A10.3,10.3,0,0,0,92.571,38.25Zm-41.143,0a18,18,0,1,0-18-18A17.991,17.991,0,0,0,51.429,38.25Zm12.343,5.143H62.438a24.852,24.852,0,0,1-22.018,0H39.086A18.519,18.519,0,0,0,20.571,61.907v4.629a7.716,7.716,0,0,0,7.714,7.714H74.571a7.716,7.716,0,0,0,7.714-7.714V61.907A18.519,18.519,0,0,0,63.771,43.393ZM27.82,41.239a10.255,10.255,0,0,0-7.248-2.989H10.286A10.3,10.3,0,0,0,0,48.536v5.143a5.137,5.137,0,0,0,5.143,5.143H15.734A23.567,23.567,0,0,1,27.82,41.239Z" transform="translate(0 -2.25)" fill="#cb0808"/>
</svg>
